<svg xmlns="http://www.w3.org/2000/svg" viewBox="0 0 256 256">
  <defs>
    <style>
      .light-blue { fill: #5BC0DE; }
      .dark-blue { fill: #0095D5; }
      .gray { fill: #999999; }
      .white { fill: #FFFFFF; }
    </style>
  </defs>

  <!-- Top left piece (light blue) -->
  <polygon class="light-blue" points="28,43 128,10 128,83 63,115"/>

  <!-- Top right piece (dark blue) -->
  <polygon class="dark-blue" points="228,43 128,10 128,83 193,115"/>

  <!-- Center diamond (gray) -->
  <polygon class="gray" points="128,128 163,148 128,168 93,148"/>

  <!-- Left middle piece (dark blue) -->
  <polygon class="dark-blue" points="16,115 16,181 63,213 63,147"/>

  <!-- Right middle piece (light blue) -->
  <polygon class="light-blue" points="240,115 240,181 193,213 193,147"/>

  <!-- Bottom left piece (dark blue) -->
  <polygon class="dark-blue" points="28,213 63,230 128,198 128,125 63,157"/>

  <!-- Bottom middle piece (light blue) -->
  <polygon class="light-blue" points="228,213 193,230 128,198 128,125 193,157"/>

  <!-- White separators -->
  <polygon class="white" points="128,10 118,15 118,88 63,120 63,125 128,93 193,125 193,120 138,88 138,15"/>
  <polygon class="white" points="16,115 16,181 21,184 21,118 63,142 63,147 68,144 68,139 26,118"/>
  <polygon class="white" points="240,115 240,181 235,184 235,118 193,142 193,147 188,144 188,139 230,118"/>
  <polygon class="white" points="28,213 63,230 63,225 33,211 33,116 28,118"/>
  <polygon class="white" points="228,213 193,230 193,225 223,211 223,116 228,118"/>
  <polygon class="white" points="63,157 128,125 128,130 68,162 68,208 63,211"/>
  <polygon class="white" points="193,157 128,125 128,130 188,162 188,208 193,211"/>
</svg>
